<svg xmlns="http://www.w3.org/2000/svg" xmlns:xlink="http://www.w3.org/1999/xlink" width="500" zoomAndPan="magnify" viewBox="0 0 375 374.999991" height="500" preserveAspectRatio="xMidYMid meet" version="1.0"><defs><g/><clipPath id="eee38188c8"><path d="M 137 206 L 302.496094 206 L 302.496094 229 L 137 229 Z M 137 206 " clip-rule="nonzero"/></clipPath><clipPath id="ba2edd54a1"><path d="M 95.496094 85.667969 L 255 85.667969 L 255 236.417969 L 95.496094 236.417969 Z M 95.496094 85.667969 " clip-rule="nonzero"/></clipPath><clipPath id="3a2fd78813"><path d="M 126.695312 144.910156 L 227.945312 144.910156 L 227.945312 225.09375 L 126.695312 225.09375 Z M 126.695312 144.910156 " clip-rule="nonzero"/></clipPath><clipPath id="9cd853ef08"><path d="M 135.707031 240.566406 L 218.980469 240.566406 L 218.980469 242.40625 L 135.707031 242.40625 Z M 135.707031 240.566406 " clip-rule="nonzero"/></clipPath><clipPath id="bb3bda18e6"><path d="M 123.804688 219.703125 L 224.527344 219.703125 L 224.527344 236.304688 L 123.804688 236.304688 Z M 123.804688 219.703125 " clip-rule="nonzero"/></clipPath><clipPath id="efbe573917"><path d="M 116.785156 239.21875 L 237.925781 239.21875 L 237.925781 250.960938 L 116.785156 250.960938 Z M 116.785156 239.21875 " clip-rule="nonzero"/></clipPath></defs><g clip-path="url(#eee38188c8)"><path fill="#ffffff" d="M 238.839844 206.804688 L 221.117188 206.804688 L 227.589844 219.109375 L 142.007812 219.109375 L 137.277344 228.0625 L 250.042969 228.0625 Z M 216.800781 206.804688 L 148.480469 206.804688 L 144.210938 214.933594 L 221.070312 214.933594 Z M 291.410156 206.804688 L 243.15625 206.804688 L 254.355469 228.0625 L 302.613281 228.0625 Z M 221.117188 206.804688 L 227.589844 219.109375 L 142.007812 219.109375 L 137.277344 228.0625 L 250.042969 228.0625 L 238.839844 206.804688 Z M 216.800781 206.804688 L 148.480469 206.804688 L 144.210938 214.933594 L 221.070312 214.933594 Z M 216.800781 206.804688 L 148.480469 206.804688 L 144.210938 214.933594 L 221.070312 214.933594 Z M 216.800781 206.804688 " fill-opacity="1" fill-rule="nonzero"/></g><g clip-path="url(#ba2edd54a1)"><path fill="#9cc649" d="M 250.042969 228.0625 L 238.839844 206.804688 L 235.714844 200.835938 L 217.992188 200.835938 L 221.117188 206.804688 L 227.589844 219.109375 L 122.21875 219.109375 L 128.691406 206.804688 L 156.746094 153.683594 L 167.765625 132.839844 L 174.925781 119.339844 L 183.558594 135.683594 L 192.417969 118.925781 L 174.925781 85.777344 L 158.949219 116.035156 L 147.929688 136.878906 L 111.015625 206.804688 L 99.765625 228.0625 L 95.496094 236.191406 L 254.355469 236.191406 Z M 250.042969 228.0625 " fill-opacity="1" fill-rule="nonzero"/></g><g clip-path="url(#3a2fd78813)"><path fill="#2c4f40" d="M 182.125 184.226562 L 181.164062 183.492188 C 182.09375 183.796875 182.691406 183.964844 183.078125 184.058594 C 183.132812 184.488281 183.207031 184.859375 183.296875 185.191406 C 182.9375 184.804688 182.546875 184.480469 182.125 184.226562 Z M 177.003906 216.179688 C 176.71875 215.652344 176.425781 215.210938 176.136719 214.90625 C 173.917969 212.582031 173.75 202.570312 178.023438 196.945312 C 178.023438 196.945312 178.484375 202.15625 178.929688 204.535156 C 179.308594 206.5625 179.996094 208.769531 180.542969 209.652344 C 180.542969 209.652344 178.582031 212.773438 177.003906 216.179688 Z M 228.003906 172.980469 L 227.804688 172.933594 L 226.152344 167.679688 L 220.421875 166.347656 L 216.476562 170.386719 L 216.382812 170.367188 L 215.679688 173.367188 L 216.519531 175.46875 L 214.289062 177.675781 L 214.304688 177.726562 L 214.265625 177.714844 L 214.863281 183.226562 C 213.078125 184.601562 209.761719 186.820312 209.597656 186.71875 C 209.378906 186.582031 207.9375 186.855469 207.9375 186.855469 C 208.492188 185.941406 207.078125 183.007812 207.078125 183.007812 C 210.042969 180.652344 206.273438 175.308594 206.273438 175.308594 C 205.582031 173.203125 202.648438 170.875 202.648438 170.875 C 202.148438 169.324219 200.875 169.039062 200.199219 168.644531 C 200.023438 168.542969 199.8125 168.445312 199.578125 168.347656 C 197.253906 167.101562 196.851562 165.957031 196.851562 165.957031 C 197.496094 166.519531 199.554688 166.316406 200.324219 165.914062 C 202.136719 164.972656 200.90625 162.632812 200.90625 162.632812 C 201.816406 162.589844 201.878906 160.992188 201.878906 160.992188 C 201.878906 160.992188 202.734375 161.054688 202.917969 160.617188 C 203.125 160.140625 202.234375 158.519531 202.234375 158.519531 C 201.816406 156.566406 202.191406 155.984375 202.191406 155.984375 C 202.898438 154.90625 202.398438 151.332031 202.398438 151.332031 C 203.9375 148.671875 199.65625 146.429688 199.65625 146.429688 C 194.964844 144.101562 191.554688 144.1875 188.648438 148.546875 C 185.738281 152.910156 188.566406 157.398438 188.898438 159.558594 C 189.203125 161.558594 187.683594 165.578125 187.457031 166.160156 C 187.453125 166.160156 187.449219 166.160156 187.445312 166.15625 C 186.824219 167.085938 186.195312 167.871094 186.195312 167.871094 C 186.195312 167.871094 183.417969 169.957031 182.769531 172.300781 C 182.335938 173.867188 182.328125 176.054688 182.328125 176.261719 C 182.328125 176.46875 181.773438 178.757812 182.023438 179.839844 C 182.269531 180.921875 182.828125 181.664062 183.035156 183.699219 C 183.039062 183.734375 183.042969 183.769531 183.046875 183.804688 C 181.15625 182.601562 179.074219 178.519531 179.074219 178.519531 C 177.945312 171.964844 172.066406 164.28125 172.066406 164.28125 C 172.574219 164.339844 174.835938 167.730469 174.835938 167.730469 C 170.316406 156.203125 164.042969 155.015625 164.042969 155.015625 C 164.382812 154.847656 166.078125 155.46875 166.078125 155.46875 C 162.632812 152.304688 160.375 156.660156 160.375 156.660156 C 160.375 156.660156 159.058594 156.871094 159.355469 158.394531 C 159.355469 158.394531 152.535156 161.828125 152.324219 168.480469 C 152.324219 168.480469 152.324219 171.996094 153.679688 173.398438 C 153.679688 173.398438 154.402344 173.640625 154.496094 174.902344 C 154.589844 176.167969 154.515625 176.5625 154.515625 176.5625 C 154.515625 176.5625 153.96875 178.558594 155.042969 178.164062 C 155.042969 178.164062 155.378906 178.011719 156.152344 178.125 C 156.152344 178.125 155.945312 179.519531 156.511719 179.613281 C 156.511719 179.613281 156.960938 179.574219 157 179.746094 C 157.039062 179.914062 156.980469 180.6875 157.527344 180.628906 C 158.074219 180.574219 158.300781 180.496094 158.414062 180.949219 C 158.527344 181.402344 159.542969 182.625 160.484375 182.15625 C 160.484375 182.15625 158.75 183.058594 157.621094 182.871094 C 156.492188 182.683594 153.027344 183.773438 152.460938 187.785156 C 152.460938 187.785156 151.894531 189.03125 151.5 193.492188 C 151.5 193.492188 150.371094 195.503906 149.6875 197.5 C 149.167969 199.015625 149.0625 200.59375 149.015625 200.839844 C 149.015625 200.839844 147.261719 200.273438 145.398438 199.765625 C 144.484375 199.515625 143.570312 198.652344 142.875 197.839844 C 145.179688 196.570312 146.753906 194.101562 146.753906 191.347656 C 146.753906 190.730469 146.679688 190.117188 146.527344 189.523438 C 145.582031 185.777344 141.765625 183.359375 137.972656 184.074219 C 137.320312 184.195312 136.707031 184.40625 136.132812 184.6875 C 135.257812 184.25 134.28125 184 133.25 184 C 129.679688 184 126.695312 186.984375 126.695312 190.554688 C 126.695312 194.128906 129.679688 197.109375 133.25 197.109375 C 133.703125 197.109375 134.148438 197.0625 134.578125 196.96875 C 135.824219 198.023438 137.402344 198.675781 139.089844 198.742188 C 140.5 201.070312 143.828125 206.238281 146.925781 208.691406 C 146.925781 208.691406 149.75 211.347656 150.144531 211.347656 C 150.539062 211.347656 154.890625 209.597656 156.753906 202.363281 C 156.753906 202.363281 157.265625 206.328125 156.304688 211.851562 C 155.886719 214.25 155.90625 215.328125 155.785156 216.542969 C 155.5625 218.699219 155.414062 219.820312 155.34375 220.21875 C 155.246094 220.746094 154.371094 224.101562 154.113281 225.089844 L 180.105469 225.089844 C 179.980469 224.601562 179.742188 223.699219 179.425781 222.613281 C 181.59375 220.28125 185.421875 215.335938 186.644531 208.464844 C 187.3125 204.71875 187.613281 195.007812 185.394531 188.886719 C 185.808594 189.632812 186.070312 190.265625 186.070312 190.265625 C 186.816406 193.214844 190.019531 197.664062 190.019531 197.664062 C 192.449219 200.15625 191.140625 205.203125 191.140625 205.203125 C 187.464844 212.246094 188.210938 213.992188 188.773438 220.535156 C 188.925781 222.308594 189.027344 223.824219 189.09375 225.089844 L 212.757812 225.089844 C 212.539062 223.632812 212.367188 222.421875 212.367188 222.421875 C 212.703125 220.675781 212.148438 213.613281 212.148438 213.613281 C 212.148438 213.613281 211.675781 213.003906 211.179688 211.648438 C 210.679688 210.289062 211.011719 210.761719 211.234375 210.234375 C 211.453125 209.707031 210.929688 208.019531 210.929688 208.019531 C 210.929688 208.019531 211.179688 206.328125 210.652344 206.382812 C 210.125 206.441406 209.238281 206.109375 209.238281 206.109375 C 209.542969 204.804688 208.546875 198.128906 208.546875 198.128906 C 212.3125 196.109375 217.300781 187.21875 217.300781 187.21875 C 217.664062 186.945312 218.179688 186.457031 218.707031 185.925781 C 219.390625 186.089844 220.074219 186.25 220.761719 186.40625 C 221.117188 186.488281 221.273438 186.527344 221.414062 186.476562 L 221.441406 186.480469 L 221.472656 186.449219 C 221.582031 186.386719 221.695312 186.269531 221.902344 186.0625 C 222.289062 185.679688 222.675781 185.292969 223.066406 184.902344 C 223.613281 184.355469 224.160156 183.804688 224.707031 183.25 C 224.867188 183.089844 224.980469 182.996094 225.058594 182.898438 L 225.207031 182.753906 L 225.332031 180.246094 L 225.371094 180.203125 L 225.011719 179.191406 C 225.777344 178.15625 225.832031 177.550781 225.832031 177.550781 C 225.832031 177.550781 225.800781 177.570312 225.734375 177.609375 L 227.257812 176.332031 L 228.003906 172.980469 " fill-opacity="1" fill-rule="nonzero"/></g><path fill="#2c4f40" d="M 218.972656 224.292969 L 135.726562 224.292969 L 135.726562 226.257812 L 218.972656 226.257812 L 218.972656 224.292969 " fill-opacity="1" fill-rule="nonzero"/><g clip-path="url(#9cd853ef08)"><path fill="#2c4f40" d="M 218.972656 240.582031 L 135.726562 240.582031 L 135.726562 242.542969 L 218.972656 242.542969 L 218.972656 240.582031 " fill-opacity="1" fill-rule="nonzero"/></g><g clip-path="url(#bb3bda18e6)"><path fill="#9cc649" d="M 123.804688 219.703125 L 224.511719 219.703125 L 224.511719 236.304688 L 123.804688 236.304688 Z M 123.804688 219.703125 " fill-opacity="1" fill-rule="nonzero"/></g><g fill="#2c4f40" fill-opacity="1"><g transform="translate(108.643569, 292.513339)"><g><path d="M 6.953125 0 L 6.578125 -1.265625 L 3.4375 -1.265625 L 3.0625 0 L 0.125 0 L 3.390625 -8.9375 L 6.734375 -8.9375 L 10 0 Z M 4.046875 -3.265625 L 5.984375 -3.265625 L 5.046875 -6.453125 L 4.984375 -6.453125 Z M 4.046875 -3.265625 "/></g></g></g><g fill="#2c4f40" fill-opacity="1"><g transform="translate(126.437454, 292.513339)"><g><path d="M 5.21875 -9.09375 C 6.550781 -9.09375 7.601562 -8.757812 8.375 -8.09375 C 9.144531 -7.4375 9.53125 -6.492188 9.53125 -5.265625 L 6.78125 -5.265625 C 6.78125 -5.785156 6.644531 -6.195312 6.375 -6.5 C 6.101562 -6.800781 5.71875 -6.953125 5.21875 -6.953125 C 4.632812 -6.953125 4.203125 -6.769531 3.921875 -6.40625 C 3.648438 -6.039062 3.515625 -5.535156 3.515625 -4.890625 L 3.515625 -4.0625 C 3.515625 -3.414062 3.648438 -2.90625 3.921875 -2.53125 C 4.203125 -2.164062 4.625 -1.984375 5.1875 -1.984375 C 5.738281 -1.984375 6.15625 -2.125 6.4375 -2.40625 C 6.726562 -2.695312 6.875 -3.101562 6.875 -3.625 L 9.53125 -3.625 C 9.53125 -2.40625 9.15625 -1.46875 8.40625 -0.8125 C 7.65625 -0.164062 6.59375 0.15625 5.21875 0.15625 C 3.695312 0.15625 2.539062 -0.234375 1.75 -1.015625 C 0.96875 -1.796875 0.578125 -2.945312 0.578125 -4.46875 C 0.578125 -6 0.96875 -7.148438 1.75 -7.921875 C 2.539062 -8.703125 3.695312 -9.09375 5.21875 -9.09375 Z M 5.21875 -9.09375 "/></g></g></g><g fill="#2c4f40" fill-opacity="1"><g transform="translate(144.231339, 292.513339)"><g><path d="M 6.953125 0 L 6.578125 -1.265625 L 3.4375 -1.265625 L 3.0625 0 L 0.125 0 L 3.390625 -8.9375 L 6.734375 -8.9375 L 10 0 Z M 4.046875 -3.265625 L 5.984375 -3.265625 L 5.046875 -6.453125 L 4.984375 -6.453125 Z M 4.046875 -3.265625 "/></g></g></g><g fill="#2c4f40" fill-opacity="1"><g transform="translate(162.025225, 292.513339)"><g><path d="M 4.84375 -8.9375 C 7.96875 -8.9375 9.53125 -7.445312 9.53125 -4.46875 C 9.53125 -1.488281 7.96875 0 4.84375 0 L 0.96875 0 L 0.96875 -8.9375 Z M 3.828125 -2.140625 L 4.78125 -2.140625 C 5.988281 -2.140625 6.59375 -2.785156 6.59375 -4.078125 L 6.59375 -4.859375 C 6.59375 -6.148438 5.988281 -6.796875 4.78125 -6.796875 L 3.828125 -6.796875 Z M 3.828125 -2.140625 "/></g></g></g><g fill="#2c4f40" fill-opacity="1"><g transform="translate(179.81911, 292.513339)"><g><path d="M 0.96875 -8.9375 L 8.703125 -8.9375 L 8.703125 -6.796875 L 3.828125 -6.796875 L 3.828125 -5.5625 L 8 -5.5625 L 8 -3.515625 L 3.828125 -3.515625 L 3.828125 -2.140625 L 8.78125 -2.140625 L 8.78125 0 L 0.96875 0 Z M 0.96875 -8.9375 "/></g></g></g><g fill="#2c4f40" fill-opacity="1"><g transform="translate(196.885219, 292.513339)"><g><path d="M 8.640625 0 L 8.640625 -3.21875 C 8.640625 -3.625 8.65625 -4.035156 8.6875 -4.453125 C 8.71875 -4.867188 8.75 -5.21875 8.78125 -5.5 C 8.820312 -5.789062 8.847656 -5.976562 8.859375 -6.0625 L 8.796875 -6.0625 L 7.15625 0 L 4.90625 0 L 3.234375 -6.046875 L 3.1875 -6.046875 C 3.195312 -5.960938 3.21875 -5.78125 3.25 -5.5 C 3.289062 -5.21875 3.328125 -4.867188 3.359375 -4.453125 C 3.398438 -4.035156 3.421875 -3.625 3.421875 -3.21875 L 3.421875 0 L 0.78125 0 L 0.78125 -8.9375 L 4.84375 -8.9375 L 6.1875 -3.78125 L 6.234375 -3.78125 L 7.578125 -8.9375 L 11.484375 -8.9375 L 11.484375 0 Z M 8.640625 0 "/></g></g></g><g fill="#2c4f40" fill-opacity="1"><g transform="translate(216.836441, 292.513339)"><g><path d="M 1.09375 0 L 1.09375 -8.9375 L 3.96875 -8.9375 L 3.96875 0 Z M 1.09375 0 "/></g></g></g><g fill="#2c4f40" fill-opacity="1"><g transform="translate(229.574882, 292.513339)"><g><path d="M 6.953125 0 L 6.578125 -1.265625 L 3.4375 -1.265625 L 3.0625 0 L 0.125 0 L 3.390625 -8.9375 L 6.734375 -8.9375 L 10 0 Z M 4.046875 -3.265625 L 5.984375 -3.265625 L 5.046875 -6.453125 L 4.984375 -6.453125 Z M 4.046875 -3.265625 "/></g></g></g><g fill="#000000" fill-opacity="1"><g transform="translate(40.859379, 272.063332)"><g><path d="M 6.53125 0 L 0.421875 -17.203125 L 6.328125 -17.203125 L 9.78125 -5.703125 L 9.875 -5.703125 L 13.34375 -17.203125 L 19 -17.203125 L 12.921875 0 Z M 6.53125 0 "/></g></g></g><g fill="#000000" fill-opacity="1"><g transform="translate(59.806301, 272.063332)"><g><path d="M 2.09375 0 L 2.09375 -17.203125 L 7.625 -17.203125 L 7.625 0 Z M 2.09375 0 "/></g></g></g><g fill="#000000" fill-opacity="1"><g transform="translate(69.029762, 272.063332)"><g><path d="M 9.296875 -17.203125 C 15.316406 -17.203125 18.328125 -14.332031 18.328125 -8.59375 C 18.328125 -2.863281 15.316406 0 9.296875 0 L 1.84375 0 L 1.84375 -17.203125 Z M 7.375 -4.125 L 9.203125 -4.125 C 11.515625 -4.125 12.671875 -5.363281 12.671875 -7.84375 L 12.671875 -9.34375 C 12.671875 -11.832031 11.515625 -13.078125 9.203125 -13.078125 L 7.375 -13.078125 Z M 7.375 -4.125 "/></g></g></g><g fill="#000000" fill-opacity="1"><g transform="translate(87.976682, 272.063332)"><g><path d="M 13.375 0 L 12.65625 -2.421875 L 6.625 -2.421875 L 5.90625 0 L 0.25 0 L 6.53125 -17.203125 L 12.953125 -17.203125 L 19.21875 0 Z M 7.78125 -6.28125 L 11.5 -6.28125 L 9.703125 -12.40625 L 9.59375 -12.40625 Z M 7.78125 -6.28125 "/></g></g></g><g fill="#000000" fill-opacity="1"><g transform="translate(106.923606, 272.063332)"><g/></g></g><g fill="#000000" fill-opacity="1"><g transform="translate(114.747284, 272.063332)"><g><path d="M 1.84375 -17.203125 L 16.71875 -17.203125 L 16.71875 -13.078125 L 7.375 -13.078125 L 7.375 -10.703125 L 15.375 -10.703125 L 15.375 -6.75 L 7.375 -6.75 L 7.375 -4.125 L 16.90625 -4.125 L 16.90625 0 L 1.84375 0 Z M 1.84375 -17.203125 "/></g></g></g><g fill="#000000" fill-opacity="1"><g transform="translate(132.294423, 272.063332)"><g><path d="M 16.625 0 L 16.625 -6.203125 C 16.625 -6.960938 16.648438 -7.75 16.703125 -8.5625 C 16.765625 -9.375 16.828125 -10.050781 16.890625 -10.59375 C 16.960938 -11.144531 17.007812 -11.5 17.03125 -11.65625 L 16.921875 -11.65625 L 13.75 0 L 9.421875 0 L 6.21875 -11.625 L 6.125 -11.625 C 6.144531 -11.476562 6.191406 -11.132812 6.265625 -10.59375 C 6.335938 -10.050781 6.40625 -9.375 6.46875 -8.5625 C 6.539062 -7.75 6.578125 -6.960938 6.578125 -6.203125 L 6.578125 0 L 1.5 0 L 1.5 -17.203125 L 9.296875 -17.203125 L 11.90625 -7.28125 L 12 -7.28125 L 14.578125 -17.203125 L 22.09375 -17.203125 L 22.09375 0 Z M 16.625 0 "/></g></g></g><g fill="#000000" fill-opacity="1"><g transform="translate(155.390687, 272.063332)"><g/></g></g><g fill="#000000" fill-opacity="1"><g transform="translate(163.21436, 272.063332)"><g><path d="M 16.625 0 L 16.625 -6.203125 C 16.625 -6.960938 16.648438 -7.75 16.703125 -8.5625 C 16.765625 -9.375 16.828125 -10.050781 16.890625 -10.59375 C 16.960938 -11.144531 17.007812 -11.5 17.03125 -11.65625 L 16.921875 -11.65625 L 13.75 0 L 9.421875 0 L 6.21875 -11.625 L 6.125 -11.625 C 6.144531 -11.476562 6.191406 -11.132812 6.265625 -10.59375 C 6.335938 -10.050781 6.40625 -9.375 6.46875 -8.5625 C 6.539062 -7.75 6.578125 -6.960938 6.578125 -6.203125 L 6.578125 0 L 1.5 0 L 1.5 -17.203125 L 9.296875 -17.203125 L 11.90625 -7.28125 L 12 -7.28125 L 14.578125 -17.203125 L 22.09375 -17.203125 L 22.09375 0 Z M 16.625 0 "/></g></g></g><g fill="#000000" fill-opacity="1"><g transform="translate(186.310618, 272.063332)"><g><path d="M 10.40625 -17.5 C 13.363281 -17.5 15.648438 -16.738281 17.265625 -15.21875 C 18.890625 -13.707031 19.703125 -11.5 19.703125 -8.59375 C 19.703125 -5.695312 18.890625 -3.488281 17.265625 -1.96875 C 15.648438 -0.457031 13.363281 0.296875 10.40625 0.296875 C 7.4375 0.296875 5.144531 -0.453125 3.53125 -1.953125 C 1.925781 -3.460938 1.125 -5.675781 1.125 -8.59375 C 1.125 -11.507812 1.925781 -13.722656 3.53125 -15.234375 C 5.144531 -16.742188 7.4375 -17.5 10.40625 -17.5 Z M 10.40625 -13.375 C 9.21875 -13.375 8.316406 -13.015625 7.703125 -12.296875 C 7.085938 -11.578125 6.78125 -10.613281 6.78125 -9.40625 L 6.78125 -7.796875 C 6.78125 -6.578125 7.085938 -5.609375 7.703125 -4.890625 C 8.316406 -4.179688 9.21875 -3.828125 10.40625 -3.828125 C 11.582031 -3.828125 12.484375 -4.179688 13.109375 -4.890625 C 13.734375 -5.609375 14.046875 -6.578125 14.046875 -7.796875 L 14.046875 -9.40625 C 14.046875 -10.613281 13.734375 -11.578125 13.109375 -12.296875 C 12.484375 -13.015625 11.582031 -13.375 10.40625 -13.375 Z M 10.40625 -13.375 "/></g></g></g><g fill="#000000" fill-opacity="1"><g transform="translate(206.632314, 272.063332)"><g><path d="M 6.53125 0 L 0.421875 -17.203125 L 6.328125 -17.203125 L 9.78125 -5.703125 L 9.875 -5.703125 L 13.34375 -17.203125 L 19 -17.203125 L 12.921875 0 Z M 6.53125 0 "/></g></g></g><g fill="#000000" fill-opacity="1"><g transform="translate(225.579231, 272.063332)"><g><path d="M 2.09375 0 L 2.09375 -17.203125 L 7.625 -17.203125 L 7.625 0 Z M 2.09375 0 "/></g></g></g><g fill="#000000" fill-opacity="1"><g transform="translate(234.802688, 272.063332)"><g><path d="M 16.625 0 L 16.625 -6.203125 C 16.625 -6.960938 16.648438 -7.75 16.703125 -8.5625 C 16.765625 -9.375 16.828125 -10.050781 16.890625 -10.59375 C 16.960938 -11.144531 17.007812 -11.5 17.03125 -11.65625 L 16.921875 -11.65625 L 13.75 0 L 9.421875 0 L 6.21875 -11.625 L 6.125 -11.625 C 6.144531 -11.476562 6.191406 -11.132812 6.265625 -10.59375 C 6.335938 -10.050781 6.40625 -9.375 6.46875 -8.5625 C 6.539062 -7.75 6.578125 -6.960938 6.578125 -6.203125 L 6.578125 0 L 1.5 0 L 1.5 -17.203125 L 9.296875 -17.203125 L 11.90625 -7.28125 L 12 -7.28125 L 14.578125 -17.203125 L 22.09375 -17.203125 L 22.09375 0 Z M 16.625 0 "/></g></g></g><g fill="#000000" fill-opacity="1"><g transform="translate(257.898946, 272.063332)"><g><path d="M 1.84375 -17.203125 L 16.71875 -17.203125 L 16.71875 -13.078125 L 7.375 -13.078125 L 7.375 -10.703125 L 15.375 -10.703125 L 15.375 -6.75 L 7.375 -6.75 L 7.375 -4.125 L 16.90625 -4.125 L 16.90625 0 L 1.84375 0 Z M 1.84375 -17.203125 "/></g></g></g><g fill="#000000" fill-opacity="1"><g transform="translate(275.446079, 272.063332)"><g><path d="M 14.15625 0 L 6.921875 -8.34375 L 6.921875 0 L 1.84375 0 L 1.84375 -17.203125 L 6.671875 -17.203125 L 13.90625 -8.71875 L 13.90625 -17.203125 L 18.96875 -17.203125 L 18.96875 0 Z M 14.15625 0 "/></g></g></g><g fill="#000000" fill-opacity="1"><g transform="translate(295.767787, 272.063332)"><g><path d="M 11.75 -12.796875 L 11.75 0 L 6.21875 0 L 6.21875 -12.796875 L 0.578125 -12.796875 L 0.578125 -17.203125 L 17.375 -17.203125 L 17.375 -12.796875 Z M 11.75 -12.796875 "/></g></g></g><g fill="#000000" fill-opacity="1"><g transform="translate(313.31492, 272.063332)"><g><path d="M 10.40625 -17.5 C 13.363281 -17.5 15.648438 -16.738281 17.265625 -15.21875 C 18.890625 -13.707031 19.703125 -11.5 19.703125 -8.59375 C 19.703125 -5.695312 18.890625 -3.488281 17.265625 -1.96875 C 15.648438 -0.457031 13.363281 0.296875 10.40625 0.296875 C 7.4375 0.296875 5.144531 -0.453125 3.53125 -1.953125 C 1.925781 -3.460938 1.125 -5.675781 1.125 -8.59375 C 1.125 -11.507812 1.925781 -13.722656 3.53125 -15.234375 C 5.144531 -16.742188 7.4375 -17.5 10.40625 -17.5 Z M 10.40625 -13.375 C 9.21875 -13.375 8.316406 -13.015625 7.703125 -12.296875 C 7.085938 -11.578125 6.78125 -10.613281 6.78125 -9.40625 L 6.78125 -7.796875 C 6.78125 -6.578125 7.085938 -5.609375 7.703125 -4.890625 C 8.316406 -4.179688 9.21875 -3.828125 10.40625 -3.828125 C 11.582031 -3.828125 12.484375 -4.179688 13.109375 -4.890625 C 13.734375 -5.609375 14.046875 -6.578125 14.046875 -7.796875 L 14.046875 -9.40625 C 14.046875 -10.613281 13.734375 -11.578125 13.109375 -12.296875 C 12.484375 -13.015625 11.582031 -13.375 10.40625 -13.375 Z M 10.40625 -13.375 "/></g></g></g><g clip-path="url(#efbe573917)"><path fill="#ffffff" d="M 116.785156 239.21875 L 237.9375 239.21875 L 237.9375 250.960938 L 116.785156 250.960938 Z M 116.785156 239.21875 " fill-opacity="1" fill-rule="nonzero"/></g></svg>